<?xml version="1.0" standalone="no"?>
<!DOCTYPE svg PUBLIC "-//W3C//DTD SVG 20010904//EN"
 "http://www.w3.org/TR/2001/REC-SVG-20010904/DTD/svg10.dtd">
<svg version="1.0" xmlns="http://www.w3.org/2000/svg"
 width="1600.000000pt" height="818.000000pt" viewBox="0 0 1600.000000 818.000000"
 preserveAspectRatio="xMidYMid meet">

<g transform="translate(0.000000,818.000000) scale(0.100000,-0.100000)"
fill="#000000" stroke="none">
<path d="M15685 8164 c-33 -8 -168 -36 -300 -64 -287 -60 -667 -143 -785 -170
-47 -11 -186 -43 -310 -70 -683 -155 -1364 -325 -1910 -477 -129 -36 -260 -72
-290 -80 -403 -107 -1366 -418 -1905 -617 -244 -90 -577 -218 -665 -256 -25
-10 -101 -42 -170 -71 -564 -233 -1283 -578 -1768 -848 l-234 -130 -151 19
c-166 21 -600 76 -907 116 -107 14 -244 31 -305 39 -60 8 -216 28 -345 45
-129 16 -341 44 -470 60 -129 17 -323 42 -430 56 -107 14 -247 31 -310 39 -63
8 -349 43 -635 79 -286 36 -578 72 -650 81 -71 8 -222 26 -335 40 -233 28
-496 59 -950 109 -888 99 -903 100 -1035 66 -145 -37 -309 -127 -464 -253
-130 -106 -178 -206 -260 -533 -27 -110 -61 -231 -75 -270 -25 -68 -26 -81
-26 -277 0 -165 4 -227 20 -310 76 -395 310 -719 642 -888 68 -35 197 -76 290
-94 135 -25 171 -24 1028 21 157 8 413 21 570 29 157 8 440 24 630 35 631 36
1072 60 1365 75 160 8 425 21 590 30 781 39 1750 75 2030 75 135 0 142 -1 204
-30 75 -36 183 -103 461 -286 909 -600 1868 -1137 2920 -1636 436 -207 724
-336 1245 -556 218 -92 719 -294 850 -342 28 -10 122 -46 210 -80 88 -34 207
-79 265 -100 58 -21 143 -53 190 -70 294 -109 877 -310 1300 -449 614 -201
681 -221 740 -221 53 0 57 2 87 41 37 48 34 11 63 684 29 684 35 831 105 2665
13 360 27 714 30 785 48 1135 79 1800 100 2145 2 47 19 317 36 600 28 448 30
523 19 575 -8 34 -16 175 -20 325 -5 185 -12 279 -22 310 l-14 45 -94 2 c-52
0 -122 -5 -155 -13z m43 -254 l42 -19 -5 -53 c-6 -64 -21 -360 -35 -678 -6
-129 -17 -379 -25 -555 -8 -176 -22 -500 -30 -720 -8 -220 -22 -573 -30 -785
-8 -212 -19 -515 -25 -675 -65 -1840 -137 -3496 -176 -4063 -6 -86 -9 -94 -30
-103 -19 -7 -82 11 -292 80 -478 158 -1097 375 -1572 551 -91 33 -212 78 -270
100 -254 93 -891 343 -1230 482 -170 70 -200 94 -200 163 0 31 6 51 19 64 31
31 141 35 388 16 172 -13 235 -14 297 -6 74 11 146 35 146 50 0 16 -97 52
-177 66 -47 8 -142 15 -212 15 -143 0 -332 15 -397 31 -36 9 -45 17 -54 45
-15 44 -1 69 47 85 62 20 693 6 930 -22 97 -11 130 -3 163 36 37 45 -48 58
-585 90 -155 9 -326 26 -400 38 l-130 22 -3 42 c-3 36 1 44 25 60 23 15 49 18
170 18 158 0 174 5 157 52 -14 41 -54 55 -176 63 -118 8 -151 21 -162 65 -9
37 21 86 59 97 18 5 71 4 131 -3 115 -14 153 -6 173 37 23 51 -24 73 -171 80
-62 3 -123 7 -136 10 -40 8 -62 40 -62 90 0 43 2 46 38 61 44 19 134 20 249 3
64 -10 93 -10 133 0 60 14 65 33 21 82 l-29 33 -172 5 c-166 5 -173 6 -191 29
-10 13 -19 38 -19 56 0 25 6 35 28 45 44 21 167 23 274 6 232 -38 354 0 271
83 -43 43 -107 53 -293 45 -166 -7 -208 -1 -248 37 -16 14 -22 32 -22 64 l0
43 77 8 c75 7 154 4 613 -17 118 -5 259 -7 313 -3 l97 7 0 38 c0 32 -4 39 -22
44 -13 2 -139 9 -281 15 -372 15 -762 56 -778 81 -13 20 -11 63 3 77 18 18
227 15 753 -8 247 -11 457 -18 466 -15 39 13 28 81 -14 89 -26 6 -279 23 -467
31 -143 7 -507 30 -641 41 -48 4 -86 13 -95 21 -21 21 -17 51 11 78 24 25 26
25 202 25 98 0 322 -7 498 -15 426 -19 739 -20 754 -1 18 21 3 43 -42 62 -33
13 -69 16 -163 15 -161 -2 -464 14 -822 44 -161 14 -311 25 -334 25 -56 0 -88
30 -88 81 0 29 5 41 23 51 36 21 680 23 1027 4 157 -9 316 -16 353 -16 97 0
155 35 114 68 -18 15 -336 40 -662 52 -310 11 -393 16 -540 32 -146 15 -233
64 -190 107 25 25 697 20 1130 -7 182 -12 476 -28 655 -37 179 -8 348 -17 375
-20 94 -10 189 39 123 64 -33 12 -455 58 -698 76 -341 24 -536 34 -970 50
-670 24 -660 23 -692 56 -33 33 -35 59 -7 85 17 16 34 18 107 16 162 -4 526
-23 742 -37 246 -17 863 -52 1055 -60 72 -3 178 -8 238 -11 l107 -6 0 31 c0
24 -5 32 -22 35 -98 20 -634 69 -993 91 -827 50 -1132 72 -1186 86 -47 12 -71
40 -67 76 l3 28 325 3 c328 3 628 -6 1060 -33 949 -59 1084 -62 1137 -29 36
23 19 51 -35 58 -233 29 -894 74 -1497 101 -501 22 -875 44 -919 55 -21 5 -48
18 -60 29 -19 20 -20 23 -6 49 l16 27 224 3 c248 4 669 -11 970 -34 295 -22
875 -53 1054 -56 146 -2 159 -1 172 17 30 41 2 92 -45 80 -63 -16 -99 -15
-301 4 -118 11 -291 25 -385 31 -93 6 -233 15 -310 20 -77 6 -270 17 -430 25
-159 8 -427 24 -595 36 -318 21 -350 28 -350 69 0 44 93 87 148 70 15 -5 171
-13 347 -20 176 -6 457 -17 625 -25 168 -8 397 -17 510 -20 113 -3 237 -8 277
-11 71 -5 73 -4 79 21 3 14 1 31 -5 39 -25 30 -512 72 -1116 96 -240 10 -599
31 -772 46 l-73 7 -12 41 c-18 61 -15 220 5 289 l18 57 252 0 c383 0 1195 -34
1807 -76 173 -11 236 -12 272 -4 57 14 78 34 57 55 -25 24 -791 88 -1489 125
-113 6 -309 17 -436 26 -128 8 -273 13 -322 12 -83 -3 -92 -1 -116 21 -35 33
-42 73 -19 112 l18 31 285 -5 c182 -3 433 -17 695 -37 478 -38 904 -46 1128
-21 70 8 124 18 120 21 -22 19 -395 73 -628 90 -77 5 -354 19 -615 30 -649 27
-952 53 -987 82 -8 7 -13 25 -11 47 3 32 6 36 43 44 48 11 916 0 1100 -13 72
-5 295 -12 497 -16 338 -7 368 -6 374 10 17 43 -19 51 -396 86 -351 32 -960
60 -1328 60 -218 0 -254 7 -286 51 -17 24 -21 75 -8 95 5 9 76 9 267 3 290 -9
833 -34 1085 -49 444 -27 1071 -39 1099 -21 19 12 7 39 -24 51 -14 5 -205 21
-423 35 -218 14 -449 30 -512 35 -63 5 -227 17 -365 25 -137 8 -320 20 -405
25 -85 6 -278 14 -427 20 -150 5 -277 11 -282 14 -11 7 -31 86 -31 123 0 25 5
30 38 40 20 5 154 44 297 85 143 42 310 89 370 106 61 16 153 41 205 56 266
72 944 238 1315 321 88 20 210 47 270 61 61 14 164 36 229 50 l119 25 25 -31
c13 -17 45 -41 70 -54 104 -52 235 -59 491 -24 l163 22 -29 26 c-35 32 -101
46 -269 60 -67 5 -132 14 -145 18 l-23 9 28 18 c33 22 133 50 248 70 49 9 98
20 110 25 40 16 130 11 176 -10z m-3763 -902 c-7 -47 -23 -331 -40 -698 -8
-173 -19 -396 -25 -495 -5 -99 -12 -243 -15 -320 -3 -77 -14 -349 -25 -605
-11 -256 -24 -593 -30 -750 -6 -157 -17 -436 -25 -620 -8 -184 -19 -456 -25
-605 -6 -148 -20 -438 -30 -644 -11 -205 -20 -409 -20 -453 0 -134 -26 -167
-125 -156 -40 5 -133 44 -195 82 -14 9 -128 61 -255 116 -372 163 -938 437
-1255 607 -732 393 -1411 795 -2075 1228 -93 61 -198 128 -233 150 -34 22 -65
49 -67 60 -26 111 -33 495 -15 795 6 91 12 261 14 378 l4 213 284 141 c371
184 763 367 1183 553 296 131 909 381 1140 466 28 10 93 34 145 54 52 20 113
42 135 50 22 7 105 37 185 65 319 114 807 273 1105 360 61 17 128 38 150 45
22 7 57 14 77 14 36 1 37 0 33 -31z m-10799 -1208 c47 -18 27 -37 -61 -58
-168 -41 -278 -99 -384 -202 -206 -200 -318 -521 -309 -882 3 -117 2 -126 -11
-96 -42 104 -56 360 -27 524 53 301 220 550 441 659 140 68 264 88 351 55z
m368 -361 c166 -113 100 -448 -89 -449 -169 0 -260 66 -272 199 -17 180 92
289 275 276 34 -2 66 -12 86 -26z m4046 -144 c169 -11 858 -107 965 -134 38
-9 40 -40 5 -59 -26 -13 -64 -11 -160 7 -30 6 -131 17 -225 26 -348 31 -398
37 -495 60 -101 25 -218 74 -240 101 -11 13 -8 14 26 10 21 -3 77 -8 124 -11z
m1464 -460 c-1 -82 -3 -240 -5 -350 -3 -169 -1 -206 13 -242 10 -24 14 -43 10
-43 -15 0 -90 86 -110 125 -80 159 -63 462 36 675 l26 55 15 -35 c12 -27 16
-69 15 -185z m-2908 140 c51 -30 93 -90 111 -157 17 -67 16 -93 -3 -159 -25
-84 -81 -133 -179 -154 -86 -20 -130 -15 -191 20 -53 31 -89 85 -109 163 -24
94 -1 185 62 243 83 77 218 96 309 44z m2184 -97 c75 -25 143 -83 161 -135 7
-21 9 -67 7 -110 -7 -100 -37 -144 -131 -192 -61 -32 -76 -35 -150 -35 -72 0
-89 4 -136 29 -60 33 -91 74 -116 152 -15 45 -15 60 -5 103 18 74 65 139 130
177 45 28 64 33 115 33 36 0 87 -9 125 -22z m-4795 -311 c23 -13 52 -42 69
-70 25 -41 30 -61 34 -130 4 -75 1 -87 -25 -136 -38 -73 -89 -101 -182 -101
-81 0 -134 23 -180 75 -45 52 -61 94 -61 162 1 107 51 175 155 206 76 23 143
21 190 -6z"/>
<path d="M14205 7583 c-19 -18 -20 -67 -2 -82 25 -20 258 -40 922 -81 476 -29
494 -29 516 -1 25 31 24 49 -3 61 -72 30 -559 80 -968 99 -433 20 -449 21
-465 4z"/>
<path d="M13463 7349 c-19 -20 -16 -43 10 -66 45 -42 61 -44 315 -48 136 -2
411 -11 612 -19 201 -9 448 -17 550 -19 l185 -2 3 32 c3 26 -1 35 -20 42 -21
9 -177 23 -733 66 -277 22 -906 31 -922 14z"/>
<path d="M12675 7168 c-27 -15 -35 -28 -35 -60 0 -49 17 -55 177 -62 180 -9
892 -53 1058 -66 302 -24 597 -33 935 -27 195 3 369 10 385 16 17 5 25 10 19
10 -6 1 -98 14 -205 31 -376 57 -789 90 -1614 130 -467 22 -631 31 -665 35
-19 3 -44 0 -55 -7z"/>
<path d="M12083 5771 c-29 -27 -29 -36 1 -66 29 -29 53 -32 381 -45 138 -6
383 -17 545 -25 162 -8 471 -22 685 -30 215 -9 523 -22 685 -30 208 -10 298
-11 307 -3 17 13 17 57 1 63 -46 14 -1457 108 -1953 130 -192 8 -413 18 -490
21 -134 6 -141 5 -162 -15z"/>
<path d="M13500 3639 c0 -9 9 -27 19 -40 19 -23 23 -24 180 -24 89 0 161 3
161 7 0 20 -16 41 -44 56 -46 24 -316 25 -316 1z"/>
<path d="M13247 3153 c-58 -3 -69 -7 -83 -29 -15 -23 -15 -26 0 -43 40 -44
223 -55 280 -17 30 19 36 70 11 80 -24 9 -133 14 -208 9z"/>
<path d="M12604 2615 c-14 -21 -14 -28 -3 -41 21 -26 66 -44 108 -44 32 0 44
5 56 24 22 34 6 62 -43 76 -64 17 -100 13 -118 -15z"/>
<path d="M11737 6553 c-3 -5 -14 -48 -25 -98 -48 -206 -72 -517 -72 -950 0
-297 -13 -539 -35 -685 -9 -61 -16 -203 -19 -400 -2 -177 -13 -422 -26 -585
-17 -222 -21 -339 -18 -564 4 -267 5 -284 23 -298 17 -12 79 -13 90 -1 2 2 8
116 14 253 7 138 23 453 36 700 49 901 75 1536 75 1851 0 107 7 213 21 315 28
207 24 333 -14 406 -27 53 -42 69 -50 56z"/>
<path d="M10900 6115 c0 -11 -11 -101 -25 -200 -14 -99 -25 -210 -25 -246 0
-70 33 -199 51 -199 17 0 67 89 80 142 20 84 6 253 -31 383 -35 119 -49 154
-50 120z"/>
<path d="M11457 6055 c-33 -167 -77 -897 -122 -2030 -8 -214 -20 -457 -25
-540 -25 -397 -25 -368 -1 -419 27 -55 62 -70 92 -39 27 27 36 117 49 503 22
692 31 816 71 1018 19 98 20 107 4 203 -18 115 -20 371 -5 574 5 72 9 211 9
310 0 186 -11 278 -46 390 -18 56 -20 58 -26 30z"/>
<path d="M11180 6028 c0 -24 -5 -70 -10 -103 -18 -108 20 -164 72 -106 57 64
66 209 14 243 -6 4 -26 8 -43 8 -32 0 -33 -1 -33 -42z"/>
<path d="M10590 5793 c-15 -53 -24 -191 -16 -244 4 -25 15 -59 26 -77 17 -28
23 -31 40 -22 30 16 62 86 67 150 7 69 -17 156 -53 199 -34 41 -51 39 -64 -6z"/>
<path d="M11201 5348 c0 -4 -14 -58 -31 -120 -88 -338 -119 -716 -120 -1452 0
-450 -15 -803 -36 -894 -15 -60 -15 -64 6 -106 14 -29 31 -48 52 -57 29 -12
33 -11 53 13 21 24 22 36 28 314 6 271 24 662 47 994 24 358 32 648 26 925 -6
236 -18 421 -25 383z"/>
<path d="M10377 5253 c-9 -15 -36 -148 -46 -228 -33 -241 -42 -404 -56 -940
-8 -319 -21 -652 -30 -740 -19 -208 -19 -221 5 -245 23 -23 82 -27 99 -6 14
17 19 76 31 386 20 521 74 1558 87 1675 4 41 1 55 -17 78 -20 25 -63 37 -73
20z"/>
<path d="M7612 5093 c-36 -116 -43 -187 -52 -543 -5 -190 -14 -372 -21 -405
-6 -33 -13 -72 -16 -86 -7 -39 23 -94 63 -115 l34 -19 26 27 26 26 7 493 c5
337 11 503 19 522 17 40 15 119 -4 145 -8 12 -25 22 -38 22 -19 0 -25 -11 -44
-67z"/>
<path d="M10074 5108 c-51 -24 -49 3 -64 -818 -11 -588 -31 -1007 -52 -1077
-11 -39 -10 -45 9 -70 38 -51 97 -43 112 15 27 108 41 383 51 997 5 319 14
643 21 719 12 147 6 198 -27 231 -18 17 -21 17 -50 3z"/>
<path d="M10614 5072 c-23 -16 -67 -297 -88 -562 -9 -107 -23 -393 -31 -635
-16 -469 -30 -687 -45 -716 -20 -36 -11 -76 21 -103 39 -33 83 -34 103 -3 15
24 25 202 51 912 14 384 35 739 55 935 9 95 5 137 -18 163 -16 18 -31 21 -48
9z"/>
<path d="M10882 5005 c-48 -158 -86 -373 -102 -595 -6 -80 -15 -381 -20 -670
-5 -289 -12 -547 -15 -575 -3 -27 -10 -99 -16 -160 -6 -65 -17 -120 -27 -137
-15 -25 -15 -30 0 -62 22 -44 77 -66 112 -43 22 15 23 22 30 189 7 179 20 381
57 918 24 338 31 978 12 1130 l-9 75 -22 -70z"/>
<path d="M9770 4908 c0 -2 -7 -39 -15 -83 -44 -227 -69 -578 -85 -1195 -6
-223 -17 -499 -25 -613 -16 -221 -14 -235 29 -269 27 -22 49 -22 74 0 20 16
21 33 31 387 6 204 20 523 30 710 11 187 22 421 26 520 3 99 10 244 16 323 9
130 8 147 -8 180 -13 27 -25 38 -45 40 -16 2 -28 2 -28 0z"/>
<path d="M7886 4793 c-39 -186 -69 -575 -64 -828 3 -149 3 -150 27 -153 93
-14 131 78 111 270 -21 209 -21 370 0 485 11 59 20 123 20 142 0 36 -32 101
-49 101 -5 0 -16 3 -24 6 -11 4 -17 -3 -21 -23z"/>
<path d="M8405 4688 c-35 -125 -46 -251 -55 -643 -5 -214 -14 -412 -20 -440
-23 -113 -23 -118 2 -155 16 -23 33 -36 51 -38 57 -7 70 26 86 218 16 191 44
948 37 1008 -8 72 -30 112 -60 112 -20 0 -26 -9 -41 -62z"/>
<path d="M9488 4735 c-14 -24 -51 -212 -69 -350 -17 -123 -22 -249 -29 -710
-5 -330 -14 -591 -21 -635 -16 -104 -15 -134 5 -164 20 -31 60 -49 88 -40 40
12 48 59 36 204 -11 139 -4 319 28 720 22 287 29 587 15 721 -13 126 -43 270
-53 254z"/>
<path d="M8687 4698 c-9 -7 -26 -49 -38 -93 -18 -68 -22 -126 -29 -400 -6
-201 -15 -351 -24 -404 -8 -47 -13 -88 -10 -93 3 -5 1 -65 -6 -134 -6 -69 -8
-146 -4 -172 8 -56 41 -92 83 -92 24 0 30 5 35 28 15 70 27 234 41 542 8 184
19 390 25 458 13 164 13 308 -1 335 -21 38 -43 46 -72 25z"/>
<path d="M9217 4605 c-38 -168 -52 -344 -67 -846 -5 -190 -15 -393 -22 -450
-27 -242 -9 -319 76 -319 14 0 28 5 31 10 4 6 10 77 15 158 5 81 16 239 24
352 30 402 37 610 26 772 -11 165 -33 312 -54 362 l-13 31 -16 -70z"/>
<path d="M8943 4542 c-18 -11 -51 -104 -65 -179 -7 -43 -12 -183 -12 -383 -1
-236 -6 -356 -19 -480 -24 -211 -20 -275 17 -307 27 -23 70 -31 81 -14 24 40
45 340 66 953 11 346 8 387 -31 408 -22 12 -22 12 -37 2z"/>
<path d="M8117 4307 c-14 -56 -31 -140 -38 -187 -15 -96 -18 -375 -6 -462 l8
-58 40 0 c60 0 68 28 70 236 0 93 8 212 16 264 29 186 16 272 -43 298 -21 10
-23 7 -47 -91z"/>
<path d="M9983 2958 c-16 -21 -43 -178 -43 -253 0 -79 22 -127 66 -147 23 -11
29 -10 45 11 32 39 53 129 54 221 0 104 -16 147 -61 166 -41 17 -49 17 -61 2z"/>
<path d="M10252 2908 c-71 -192 -70 -421 1 -504 l24 -27 22 32 c74 103 101
334 53 456 -20 53 -50 95 -67 95 -7 0 -22 -24 -33 -52z"/>
<path d="M10495 2927 c-35 -85 -48 -197 -42 -377 3 -96 8 -183 12 -192 11 -29
69 -24 94 8 24 31 27 83 10 198 -9 61 -8 92 5 169 28 163 17 227 -40 227 -19
0 -28 -8 -39 -33z"/>
<path d="M10731 2613 c-41 -79 -57 -273 -26 -333 19 -37 54 -55 88 -46 21 5
27 15 36 54 33 155 22 273 -30 317 -36 29 -55 32 -68 8z"/>
<path d="M11006 2523 c-23 -75 -27 -165 -14 -338 l13 -160 33 2 c108 5 177
236 123 411 -23 77 -71 132 -116 132 -19 0 -26 -8 -39 -47z"/>
<path d="M11553 2512 c-44 -79 -55 -138 -63 -362 -4 -118 -13 -228 -20 -245
-21 -56 33 -145 90 -145 25 0 50 41 50 84 0 24 12 133 26 242 17 131 24 224
21 271 -6 76 -31 147 -64 175 -19 17 -20 17 -40 -20z"/>
<path d="M11273 2443 c-14 -60 -18 -119 -18 -253 0 -208 8 -266 36 -275 53
-17 111 76 130 211 21 145 -6 318 -57 375 -9 11 -30 19 -45 19 -26 0 -29 -4
-46 -77z"/>
</g>
</svg>
